<?xml version="1.0" standalone="no"?>
<!DOCTYPE svg PUBLIC "-//W3C//DTD SVG 20010904//EN"
 "http://www.w3.org/TR/2001/REC-SVG-20010904/DTD/svg10.dtd">
<svg version="1.0" xmlns="http://www.w3.org/2000/svg"
 width="751.000000pt" height="751.000000pt" viewBox="0 0 751.000000 751.000000"
 preserveAspectRatio="xMidYMid meet">
<metadata>
Created by potrace 1.14, written by Peter Selinger 2001-2017
</metadata>
<g transform="translate(0.000000,751.000000) scale(0.100000,-0.100000)"
fill="#000000" stroke="none">
<path d="M4644 5423 c-16 -21 -43 -53 -60 -73 -16 -19 -84 -100 -149 -180 -66
-80 -127 -154 -137 -165 -9 -11 -48 -58 -86 -105 l-70 -84 -64 -2 c-34 -1
-229 -5 -433 -9 -203 -4 -375 -8 -382 -8 -20 -1 -9 -10 104 -92 59 -44 158
-117 220 -162 l112 -82 -37 -39 c-48 -51 -308 -326 -346 -366 -15 -17 -56 -60
-90 -95 -57 -61 -56 -65 4 -15 14 12 62 54 108 93 130 111 149 124 167 114 13
-8 -52 -77 -337 -362 -194 -194 -337 -343 -318 -333 19 11 107 61 195 112 88
51 178 102 200 115 22 12 127 73 234 134 154 89 196 109 208 100 7 -7 12 -16
11 -21 -2 -4 -77 -58 -168 -118 -91 -60 -160 -110 -155 -110 6 0 15 4 20 9 6
4 73 41 150 81 77 40 169 89 205 108 36 19 121 64 190 100 69 36 156 82 194
103 l68 37 127 -94 c69 -52 146 -109 170 -126 l44 -31 -7 68 c-7 75 -33 145
-83 221 -42 65 -125 151 -187 193 l-46 32 -63 -34 c-351 -191 -492 -266 -495
-262 -2 1 52 60 120 130 154 159 225 234 261 272 l29 31 -156 83 c-86 46 -156
86 -156 89 0 3 105 5 232 5 l233 -1 39 46 c21 25 42 47 45 50 3 3 42 46 85 95
44 50 86 97 93 105 12 13 13 -5 7 -115 -4 -71 -8 -141 -8 -155 l-1 -25 212 0
c117 0 213 -2 213 -6 0 -3 -93 -41 -206 -85 -189 -73 -204 -80 -178 -89 16 -5
56 -24 90 -41 54 -29 63 -31 90 -19 26 11 277 126 484 222 102 47 254 119 315
148 l50 24 -436 -3 -436 -4 1 305 c1 168 -2 309 -5 314 -3 5 -18 -8 -35 -28z"/>
<path d="M3930 4615 c0 -1 53 -28 118 -60 195 -94 378 -226 516 -373 109 -116
222 -308 269 -457 l23 -72 157 0 c134 -1 157 2 153 14 -14 35 -91 157 -147
234 -56 75 -215 243 -294 309 -181 151 -448 296 -692 376 -27 8 -60 19 -75 24
-16 5 -28 7 -28 5z"/>
<path d="M4167 4609 c7 -7 15 -10 18 -7 3 3 -2 9 -12 12 -14 6 -15 5 -6 -5z"/>
<path d="M4200 4598 c3 -3 67 -37 142 -76 76 -39 150 -80 165 -90 16 -11 64
-43 108 -72 247 -165 429 -340 562 -540 27 -41 59 -96 70 -121 l22 -46 58 -1
c32 0 61 2 65 5 26 15 -157 269 -282 391 -233 229 -549 422 -900 550 -8 3 -13
3 -10 0z"/>
<path d="M4280 4366 c0 -2 23 -21 51 -41 147 -109 282 -353 332 -600 l14 -70
67 -1 c67 -1 67 -1 62 25 -6 40 -49 148 -94 236 -91 180 -214 318 -374 419
-32 20 -58 35 -58 32z"/>
<path d="M315 3888 c-2 -7 -14 -51 -26 -98 -26 -104 -23 -93 -54 -215 -14 -55
-27 -113 -30 -129 -3 -16 -8 -32 -10 -36 -2 -3 -6 -17 -9 -31 -3 -13 -39 -161
-81 -329 -43 -168 -79 -314 -82 -325 -3 -11 -7 -31 -10 -45 l-5 -25 524 1
c288 1 530 2 539 3 31 2 111 74 149 132 30 46 45 90 75 210 l38 151 -17 52
c-10 28 -19 56 -22 62 -3 6 10 26 27 45 59 63 78 103 112 241 46 184 40 268
-24 323 l-31 25 -529 0 c-415 0 -531 -3 -534 -12z m791 -231 c5 -4 -24 -134
-53 -239 -4 -16 -25 -18 -215 -20 l-211 -3 -28 -115 c-16 -62 -27 -116 -24
-118 2 -2 96 -4 208 -4 l204 0 -14 -62 c-7 -33 -22 -92 -31 -131 l-18 -70
-257 -1 c-231 -1 -257 1 -253 15 7 21 186 742 186 746 0 11 495 13 506 2z"/>
<path d="M1663 3533 c-87 -45 -104 -82 -189 -420 -88 -348 -91 -384 -38 -434
l25 -24 340 0 340 0 10 40 c15 53 21 86 23 110 1 19 -6 20 -260 20 l-261 0 7
30 c4 16 15 59 24 95 l17 65 239 0 239 -1 16 61 c9 33 18 72 21 86 l5 26 -231
0 c-127 1 -233 3 -237 6 -5 5 4 53 28 148 l9 36 228 1 c301 1 316 1 310 7 -3
3 3 38 13 77 11 40 19 75 19 79 0 3 -151 6 -335 6 -271 0 -340 -2 -362 -14z"/>
<path d="M2485 3536 c-3 -9 -96 -380 -110 -436 -2 -8 -17 -70 -34 -136 -43
-171 -46 -205 -21 -253 11 -22 25 -43 32 -48 18 -10 608 -10 615 0 14 23 41
152 33 157 -5 3 -106 5 -224 5 -119 0 -216 3 -216 8 0 4 37 152 81 330 45 177
85 336 89 353 l7 32 -124 -1 c-82 0 -126 -4 -128 -11z"/>
<path d="M3314 3536 c-10 -29 -214 -857 -214 -869 0 -11 19 -13 80 -12 43 0
81 3 83 5 2 3 39 147 82 320 43 173 81 324 85 335 7 19 8 17 27 -85 2 -13 27
-128 54 -255 27 -126 51 -239 53 -250 14 -74 8 -70 109 -69 51 1 97 2 104 3
11 1 335 447 456 628 12 18 24 33 27 33 3 0 -31 -147 -77 -327 -45 -180 -80
-330 -77 -332 3 -3 57 -6 121 -6 107 -1 116 0 124 19 7 17 62 229 74 286 2 8
20 80 40 160 20 80 38 152 40 160 2 8 14 60 28 115 14 55 27 112 31 126 l6 26
-175 1 -176 0 -197 -276 c-108 -153 -202 -283 -209 -290 -7 -7 -13 -18 -13
-23 0 -5 -4 -9 -8 -9 -4 0 -16 39 -26 88 -9 48 -19 94 -21 103 -2 9 -6 32 -9
50 -4 19 -21 106 -39 194 l-33 160 -173 1 c-120 1 -174 -2 -177 -10z"/>
<path d="M4762 3522 c-42 -28 -68 -56 -87 -93 -11 -20 -92 -324 -111 -414 -2
-11 -15 -66 -29 -123 -15 -56 -24 -115 -22 -130 6 -35 32 -88 49 -99 22 -13
659 -11 693 2 35 14 90 73 111 119 22 48 156 596 156 641 1 45 -23 100 -50
114 -9 5 -165 9 -345 9 l-328 0 -37 -26z m504 -160 c-2 -9 -33 -132 -68 -272
-34 -140 -66 -257 -70 -260 -9 -7 -345 -6 -353 1 -4 5 111 485 129 535 3 8 62
12 186 12 164 0 180 -1 176 -16z"/>
<path d="M5752 3523 c-64 -44 -93 -87 -112 -164 -6 -24 -12 -51 -14 -59 -128
-504 -134 -530 -113 -580 6 -14 19 -34 29 -45 17 -19 33 -20 346 -20 180 -1
339 3 354 8 32 10 93 75 113 120 8 18 48 167 89 333 59 236 73 308 67 335 -10
46 -28 77 -49 87 -9 5 -164 10 -345 10 l-327 0 -38 -25z"/>
<path d="M6681 3536 c-6 -7 -12 -23 -15 -36 -3 -14 -50 -205 -105 -425 -56
-220 -101 -405 -101 -410 0 -7 46 -10 123 -10 l122 0 90 361 90 361 183 1
c169 1 183 0 178 -16 -3 -9 -13 -48 -22 -87 -9 -38 -20 -74 -25 -79 -4 -5 -73
-9 -153 -9 l-144 0 -16 -63 c-9 -35 -16 -71 -16 -81 1 -10 49 -101 108 -203
l108 -185 132 0 c73 0 132 2 132 5 0 3 -14 30 -31 60 -17 30 -51 93 -77 140
-25 47 -54 99 -64 115 -10 17 -18 32 -18 35 0 3 36 5 79 6 71 0 83 3 116 28
20 16 49 48 65 72 30 48 83 249 82 313 -1 49 -26 99 -55 110 -36 13 -755 10
-766 -3z"/>
<path d="M4610 2495 c0 -2 -20 -83 -45 -179 -68 -263 -70 -257 107 -257 191
-1 176 -4 187 38 6 20 9 39 6 41 -2 2 -51 4 -109 4 -58 0 -106 3 -106 7 0 3
18 78 40 166 22 88 40 166 40 173 0 8 -19 12 -60 12 -33 0 -60 -2 -60 -5z"/>
<path d="M5016 2483 c-2 -10 -7 -27 -10 -39 -6 -20 -2 -21 57 -23 l64 -2 7 32
c3 17 6 35 6 40 0 5 -27 9 -59 9 -48 0 -61 -3 -65 -17z"/>
<path d="M5202 2482 c-3 -9 -29 -108 -57 -219 l-51 -203 43 0 c48 0 39 -16 83
160 12 47 26 103 32 125 l11 40 23 -109 c13 -60 28 -133 34 -162 l11 -54 54 0
54 0 113 160 c62 87 113 158 114 157 1 -1 -16 -71 -37 -156 -21 -85 -38 -156
-36 -157 2 -2 29 -5 60 -6 44 -3 58 0 62 12 10 33 105 414 105 421 0 5 -39 7
-87 6 l-87 -2 -101 -142 c-55 -78 -103 -142 -106 -142 -3 -1 -16 54 -29 122
-35 181 -25 167 -120 166 -66 -1 -83 -4 -88 -17z"/>
<path d="M5879 2474 c-18 -49 -14 -54 51 -53 56 2 61 3 66 28 3 14 7 31 9 38
3 8 -14 12 -56 12 -55 -1 -61 -3 -70 -25z"/>
<path d="M6060 2462 c-5 -20 -10 -40 -10 -44 0 -4 27 -7 61 -7 33 0 62 -1 64
-3 3 -3 -64 -280 -79 -325 -7 -22 -5 -23 57 -23 l65 0 42 175 42 175 32 1 c17
1 45 0 63 -1 33 -2 44 10 57 63 l6 27 -194 0 -195 -1 -11 -37z"/>
<path d="M6536 2470 c-31 -27 -38 -47 -62 -155 -1 -5 -11 -47 -23 -92 -42
-164 -42 -164 172 -165 92 0 169 1 170 3 2 2 8 21 14 42 l11 37 -36 1 c-21 0
-79 0 -129 -1 -102 -1 -100 -2 -83 60 l10 36 116 -1 c113 -1 116 0 125 23 5
13 9 32 9 43 0 18 -8 19 -116 19 -105 0 -115 2 -110 18 3 9 8 29 12 45 7 30
-2 29 157 29 106 0 108 0 118 25 5 13 9 33 9 44 0 18 -8 19 -165 18 l-166 0
-33 -29z"/>
<path d="M6967 2493 c-9 -14 -109 -424 -105 -428 10 -10 110 -7 117 4 4 6 25
82 46 169 20 86 41 160 44 165 9 9 158 14 167 5 3 -4 -8 -65 -26 -137 l-32
-129 -51 0 c-90 0 -95 -1 -102 -24 -18 -63 -27 -58 103 -58 110 0 120 2 139
23 11 12 23 27 26 33 12 22 77 292 77 322 0 57 -11 60 -214 61 -102 1 -187 -2
-189 -6z"/>
<path d="M4956 2242 c-22 -86 -41 -163 -44 -169 -3 -10 13 -13 60 -13 l64 0
38 158 c22 86 41 162 43 168 3 7 -18 11 -60 12 l-63 1 -38 -157z"/>
<path d="M5850 2360 c-6 -19 -25 -95 -44 -167 l-33 -133 26 -1 c14 0 41 -1 60
-2 25 -2 36 3 42 18 9 22 79 302 79 316 0 5 -27 8 -60 7 -60 -3 -61 -3 -70
-38z"/>
</g>
</svg>
